<mxfile host="Electron" agent="Mozilla/5.0 (Windows NT 10.0; Win64; x64) AppleWebKit/537.36 (KHTML, like Gecko) draw.io/25.0.2 Chrome/128.0.6613.186 Electron/32.2.5 Safari/537.36" version="25.0.2">
  <diagram id="C5RBs43oDa-KdzZeNtuy" name="Page-1">
    <mxGraphModel dx="2501" dy="836" grid="1" gridSize="10" guides="1" tooltips="1" connect="1" arrows="1" fold="1" page="1" pageScale="1" pageWidth="827" pageHeight="1169" math="0" shadow="0">
      <root>
        <mxCell id="WIyWlLk6GJQsqaUBKTNV-0" />
        <mxCell id="WIyWlLk6GJQsqaUBKTNV-1" parent="WIyWlLk6GJQsqaUBKTNV-0" />
        <mxCell id="Nar7qtgmbKGVHt6r_NG1-8" value="&lt;font style=&quot;font-size: 18px;&quot;&gt;User&lt;/font&gt;" style="shape=umlActor;verticalLabelPosition=bottom;verticalAlign=top;html=1;outlineConnect=0;fillColor=#FFFFCC;" parent="WIyWlLk6GJQsqaUBKTNV-1" vertex="1">
          <mxGeometry x="-130" y="475" width="60" height="90" as="geometry" />
        </mxCell>
        <mxCell id="Nar7qtgmbKGVHt6r_NG1-10" value="&lt;font style=&quot;font-size: 18px;&quot;&gt;Tìm kiếm công thức&lt;/font&gt;" style="ellipse;whiteSpace=wrap;html=1;fillColor=#FFFFCC;" parent="WIyWlLk6GJQsqaUBKTNV-1" vertex="1">
          <mxGeometry x="349" y="330" width="120" height="80" as="geometry" />
        </mxCell>
        <mxCell id="Nar7qtgmbKGVHt6r_NG1-12" value="&lt;font style=&quot;font-size: 18px;&quot;&gt;Quản lý tài khoản cá nhân&lt;/font&gt;" style="ellipse;whiteSpace=wrap;html=1;fillColor=#FFFFCC;" parent="WIyWlLk6GJQsqaUBKTNV-1" vertex="1">
          <mxGeometry x="329" y="220" width="160" height="90" as="geometry" />
        </mxCell>
        <mxCell id="Nar7qtgmbKGVHt6r_NG1-13" value="&lt;font style=&quot;font-size: 18px;&quot;&gt;Quản lý công thức&lt;/font&gt;" style="ellipse;whiteSpace=wrap;html=1;fillColor=#FFFFCC;" parent="WIyWlLk6GJQsqaUBKTNV-1" vertex="1">
          <mxGeometry x="494" y="600" width="166" height="80" as="geometry" />
        </mxCell>
        <mxCell id="Nar7qtgmbKGVHt6r_NG1-14" value="&lt;font style=&quot;font-size: 18px;&quot;&gt;Đăng xuất&lt;/font&gt;" style="ellipse;whiteSpace=wrap;html=1;fillColor=#FFFFCC;" parent="WIyWlLk6GJQsqaUBKTNV-1" vertex="1">
          <mxGeometry x="349" y="1100" width="120" height="80" as="geometry" />
        </mxCell>
        <mxCell id="Nar7qtgmbKGVHt6r_NG1-15" value="&lt;font style=&quot;font-size: 18px;&quot;&gt;Bình luận và đánh giá&lt;/font&gt;" style="ellipse;whiteSpace=wrap;html=1;fillColor=#FFFFCC;" parent="WIyWlLk6GJQsqaUBKTNV-1" vertex="1">
          <mxGeometry x="338" y="430" width="136" height="80" as="geometry" />
        </mxCell>
        <mxCell id="Nar7qtgmbKGVHt6r_NG1-16" value="&lt;font style=&quot;font-size: 18px;&quot;&gt;Quản lý bình luận&lt;/font&gt;" style="ellipse;whiteSpace=wrap;html=1;fillColor=#FFFFCC;" parent="WIyWlLk6GJQsqaUBKTNV-1" vertex="1">
          <mxGeometry x="671" y="440" width="156" height="80" as="geometry" />
        </mxCell>
        <mxCell id="Nar7qtgmbKGVHt6r_NG1-17" value="&lt;font style=&quot;font-size: 18px;&quot;&gt;Đăng nhập&lt;/font&gt;" style="ellipse;whiteSpace=wrap;html=1;fillColor=#FFFFCC;" parent="WIyWlLk6GJQsqaUBKTNV-1" vertex="1">
          <mxGeometry x="329" y="140" width="170" height="70" as="geometry" />
        </mxCell>
        <mxCell id="Nar7qtgmbKGVHt6r_NG1-19" value="&lt;font style=&quot;font-size: 18px;&quot;&gt;Admin&lt;/font&gt;&lt;div&gt;&lt;br&gt;&lt;/div&gt;" style="shape=umlActor;verticalLabelPosition=bottom;verticalAlign=top;html=1;outlineConnect=0;fillColor=#FFFFCC;" parent="WIyWlLk6GJQsqaUBKTNV-1" vertex="1">
          <mxGeometry x="930" y="470" width="60" height="90" as="geometry" />
        </mxCell>
        <mxCell id="Nar7qtgmbKGVHt6r_NG1-20" value="&lt;font style=&quot;font-size: 18px;&quot;&gt;Quản lý tài khoản người dùng&lt;/font&gt;" style="ellipse;whiteSpace=wrap;html=1;fillColor=#FFFFCC;" parent="WIyWlLk6GJQsqaUBKTNV-1" vertex="1">
          <mxGeometry x="504" y="760" width="156" height="80" as="geometry" />
        </mxCell>
        <mxCell id="Nar7qtgmbKGVHt6r_NG1-22" value="&lt;font style=&quot;font-size: 18px;&quot;&gt;Đăng ký&lt;/font&gt;" style="ellipse;whiteSpace=wrap;html=1;fillColor=#FFFFCC;" parent="WIyWlLk6GJQsqaUBKTNV-1" vertex="1">
          <mxGeometry x="334" y="40" width="150" height="90" as="geometry" />
        </mxCell>
        <mxCell id="Nar7qtgmbKGVHt6r_NG1-24" value="" style="endArrow=classic;html=1;rounded=0;entryX=0;entryY=0.5;entryDx=0;entryDy=0;exitX=1;exitY=0.3333333333333333;exitDx=0;exitDy=0;exitPerimeter=0;fillColor=#FFFFCC;" parent="WIyWlLk6GJQsqaUBKTNV-1" source="Nar7qtgmbKGVHt6r_NG1-8" target="Nar7qtgmbKGVHt6r_NG1-22" edge="1">
          <mxGeometry width="50" height="50" relative="1" as="geometry">
            <mxPoint x="40" y="500" as="sourcePoint" />
            <mxPoint x="60" y="340" as="targetPoint" />
          </mxGeometry>
        </mxCell>
        <mxCell id="Nar7qtgmbKGVHt6r_NG1-25" value="" style="endArrow=classic;html=1;rounded=0;entryX=0.029;entryY=0.7;entryDx=0;entryDy=0;entryPerimeter=0;exitX=1;exitY=0.3333333333333333;exitDx=0;exitDy=0;exitPerimeter=0;fillColor=#FFFFCC;" parent="WIyWlLk6GJQsqaUBKTNV-1" source="Nar7qtgmbKGVHt6r_NG1-8" target="Nar7qtgmbKGVHt6r_NG1-17" edge="1">
          <mxGeometry width="50" height="50" relative="1" as="geometry">
            <mxPoint x="90" y="490" as="sourcePoint" />
            <mxPoint x="60" y="460" as="targetPoint" />
          </mxGeometry>
        </mxCell>
        <mxCell id="Nar7qtgmbKGVHt6r_NG1-26" value="" style="endArrow=classic;html=1;rounded=0;entryX=0;entryY=0.644;entryDx=0;entryDy=0;entryPerimeter=0;exitX=1;exitY=0.3333333333333333;exitDx=0;exitDy=0;exitPerimeter=0;fillColor=#FFFFCC;" parent="WIyWlLk6GJQsqaUBKTNV-1" source="Nar7qtgmbKGVHt6r_NG1-8" target="Nar7qtgmbKGVHt6r_NG1-12" edge="1">
          <mxGeometry width="50" height="50" relative="1" as="geometry">
            <mxPoint x="100" y="500" as="sourcePoint" />
            <mxPoint x="170" y="430" as="targetPoint" />
          </mxGeometry>
        </mxCell>
        <mxCell id="Nar7qtgmbKGVHt6r_NG1-27" value="" style="endArrow=classic;html=1;rounded=0;exitX=1;exitY=0.3333333333333333;exitDx=0;exitDy=0;exitPerimeter=0;fillColor=#FFFFCC;" parent="WIyWlLk6GJQsqaUBKTNV-1" source="Nar7qtgmbKGVHt6r_NG1-8" target="Nar7qtgmbKGVHt6r_NG1-10" edge="1">
          <mxGeometry width="50" height="50" relative="1" as="geometry">
            <mxPoint x="130" y="510" as="sourcePoint" />
            <mxPoint x="350" y="410" as="targetPoint" />
          </mxGeometry>
        </mxCell>
        <mxCell id="Nar7qtgmbKGVHt6r_NG1-28" value="" style="endArrow=classic;html=1;rounded=0;entryX=-0.008;entryY=0.425;entryDx=0;entryDy=0;entryPerimeter=0;exitX=1;exitY=0.3333333333333333;exitDx=0;exitDy=0;exitPerimeter=0;fillColor=#FFFFCC;" parent="WIyWlLk6GJQsqaUBKTNV-1" source="Nar7qtgmbKGVHt6r_NG1-8" target="Nar7qtgmbKGVHt6r_NG1-15" edge="1">
          <mxGeometry width="50" height="50" relative="1" as="geometry">
            <mxPoint x="120" y="520" as="sourcePoint" />
            <mxPoint x="170" y="520" as="targetPoint" />
          </mxGeometry>
        </mxCell>
        <mxCell id="Nar7qtgmbKGVHt6r_NG1-30" value="" style="endArrow=classic;html=1;rounded=0;entryX=0.971;entryY=0.614;entryDx=0;entryDy=0;entryPerimeter=0;exitX=0;exitY=0.3333333333333333;exitDx=0;exitDy=0;exitPerimeter=0;fillColor=#FFFFCC;" parent="WIyWlLk6GJQsqaUBKTNV-1" source="Nar7qtgmbKGVHt6r_NG1-19" target="Nar7qtgmbKGVHt6r_NG1-17" edge="1">
          <mxGeometry width="50" height="50" relative="1" as="geometry">
            <mxPoint x="660" y="400" as="sourcePoint" />
            <mxPoint x="710" y="350" as="targetPoint" />
          </mxGeometry>
        </mxCell>
        <mxCell id="Nar7qtgmbKGVHt6r_NG1-31" value="" style="endArrow=classic;html=1;rounded=0;entryX=0;entryY=0.325;entryDx=0;entryDy=0;entryPerimeter=0;exitX=1;exitY=0.3333333333333333;exitDx=0;exitDy=0;exitPerimeter=0;fillColor=#FFFFCC;" parent="WIyWlLk6GJQsqaUBKTNV-1" source="Nar7qtgmbKGVHt6r_NG1-8" target="Nar7qtgmbKGVHt6r_NG1-14" edge="1">
          <mxGeometry width="50" height="50" relative="1" as="geometry">
            <mxPoint x="110" y="570" as="sourcePoint" />
            <mxPoint x="140" y="600" as="targetPoint" />
          </mxGeometry>
        </mxCell>
        <mxCell id="Nar7qtgmbKGVHt6r_NG1-33" value="" style="endArrow=classic;html=1;rounded=0;exitX=0;exitY=0.3333333333333333;exitDx=0;exitDy=0;exitPerimeter=0;fillColor=#FFFFCC;" parent="WIyWlLk6GJQsqaUBKTNV-1" source="Nar7qtgmbKGVHt6r_NG1-19" target="Nar7qtgmbKGVHt6r_NG1-16" edge="1">
          <mxGeometry width="50" height="50" relative="1" as="geometry">
            <mxPoint x="640" y="560" as="sourcePoint" />
            <mxPoint x="690" y="510" as="targetPoint" />
          </mxGeometry>
        </mxCell>
        <mxCell id="Nar7qtgmbKGVHt6r_NG1-34" value="" style="endArrow=classic;html=1;rounded=0;exitX=0;exitY=0.3333333333333333;exitDx=0;exitDy=0;exitPerimeter=0;entryX=0.916;entryY=0.288;entryDx=0;entryDy=0;entryPerimeter=0;fillColor=#FFFFCC;" parent="WIyWlLk6GJQsqaUBKTNV-1" source="Nar7qtgmbKGVHt6r_NG1-19" target="Nar7qtgmbKGVHt6r_NG1-13" edge="1">
          <mxGeometry width="50" height="50" relative="1" as="geometry">
            <mxPoint x="680" y="630" as="sourcePoint" />
            <mxPoint x="730" y="580" as="targetPoint" />
          </mxGeometry>
        </mxCell>
        <mxCell id="Nar7qtgmbKGVHt6r_NG1-35" value="" style="endArrow=classic;html=1;rounded=0;exitX=0;exitY=0.3333333333333333;exitDx=0;exitDy=0;exitPerimeter=0;entryX=1;entryY=0;entryDx=0;entryDy=0;fillColor=#FFFFCC;" parent="WIyWlLk6GJQsqaUBKTNV-1" source="Nar7qtgmbKGVHt6r_NG1-19" target="Nar7qtgmbKGVHt6r_NG1-20" edge="1">
          <mxGeometry width="50" height="50" relative="1" as="geometry">
            <mxPoint x="760" y="510" as="sourcePoint" />
            <mxPoint x="610" y="710" as="targetPoint" />
          </mxGeometry>
        </mxCell>
        <mxCell id="Nar7qtgmbKGVHt6r_NG1-36" value="" style="endArrow=classic;html=1;rounded=0;entryX=0.917;entryY=0.238;entryDx=0;entryDy=0;entryPerimeter=0;exitX=0;exitY=0.3333333333333333;exitDx=0;exitDy=0;exitPerimeter=0;fillColor=#FFFFCC;" parent="WIyWlLk6GJQsqaUBKTNV-1" source="Nar7qtgmbKGVHt6r_NG1-19" target="Nar7qtgmbKGVHt6r_NG1-14" edge="1">
          <mxGeometry width="50" height="50" relative="1" as="geometry">
            <mxPoint x="740" y="580" as="sourcePoint" />
            <mxPoint x="750" y="670" as="targetPoint" />
          </mxGeometry>
        </mxCell>
        <mxCell id="t3iFmXnVgxo45WNwYdjQ-0" value="&lt;font style=&quot;font-size: 18px;&quot;&gt;Xóa bình luận&lt;/font&gt;" style="ellipse;whiteSpace=wrap;html=1;fillColor=#FFFFCC;" vertex="1" parent="WIyWlLk6GJQsqaUBKTNV-1">
          <mxGeometry x="540" y="370" width="120" height="80" as="geometry" />
        </mxCell>
        <mxCell id="t3iFmXnVgxo45WNwYdjQ-1" value="" style="endArrow=classic;html=1;rounded=0;exitX=0;exitY=0.5;exitDx=0;exitDy=0;entryX=1;entryY=1;entryDx=0;entryDy=0;" edge="1" parent="WIyWlLk6GJQsqaUBKTNV-1" source="Nar7qtgmbKGVHt6r_NG1-16" target="t3iFmXnVgxo45WNwYdjQ-0">
          <mxGeometry width="50" height="50" relative="1" as="geometry">
            <mxPoint x="380" y="740" as="sourcePoint" />
            <mxPoint x="620" y="500" as="targetPoint" />
          </mxGeometry>
        </mxCell>
        <mxCell id="t3iFmXnVgxo45WNwYdjQ-2" value="&lt;font style=&quot;font-size: 18px;&quot;&gt;Sửa công thức&lt;/font&gt;" style="ellipse;whiteSpace=wrap;html=1;fillColor=#FFFFCC;" vertex="1" parent="WIyWlLk6GJQsqaUBKTNV-1">
          <mxGeometry x="305" y="550" width="150" height="70" as="geometry" />
        </mxCell>
        <mxCell id="t3iFmXnVgxo45WNwYdjQ-3" value="&lt;font style=&quot;font-size: 18px;&quot;&gt;Xóa công thức&lt;/font&gt;" style="ellipse;whiteSpace=wrap;html=1;fillColor=#FFFFCC;" vertex="1" parent="WIyWlLk6GJQsqaUBKTNV-1">
          <mxGeometry x="310" y="710" width="130" height="70" as="geometry" />
        </mxCell>
        <mxCell id="t3iFmXnVgxo45WNwYdjQ-4" value="&lt;font style=&quot;font-size: 18px;&quot;&gt;Thêm công thức&lt;/font&gt;" style="ellipse;whiteSpace=wrap;html=1;fillColor=#FFFFCC;" vertex="1" parent="WIyWlLk6GJQsqaUBKTNV-1">
          <mxGeometry x="300" y="630" width="140" height="70" as="geometry" />
        </mxCell>
        <mxCell id="t3iFmXnVgxo45WNwYdjQ-5" value="" style="endArrow=classic;html=1;rounded=0;exitX=0;exitY=0.5;exitDx=0;exitDy=0;entryX=1;entryY=0.5;entryDx=0;entryDy=0;" edge="1" parent="WIyWlLk6GJQsqaUBKTNV-1" source="Nar7qtgmbKGVHt6r_NG1-13" target="t3iFmXnVgxo45WNwYdjQ-2">
          <mxGeometry width="50" height="50" relative="1" as="geometry">
            <mxPoint x="410" y="680" as="sourcePoint" />
            <mxPoint x="480" y="590" as="targetPoint" />
          </mxGeometry>
        </mxCell>
        <mxCell id="t3iFmXnVgxo45WNwYdjQ-6" value="" style="endArrow=classic;html=1;rounded=0;exitX=0;exitY=0.5;exitDx=0;exitDy=0;entryX=1;entryY=0.5;entryDx=0;entryDy=0;" edge="1" parent="WIyWlLk6GJQsqaUBKTNV-1" source="Nar7qtgmbKGVHt6r_NG1-13" target="t3iFmXnVgxo45WNwYdjQ-4">
          <mxGeometry width="50" height="50" relative="1" as="geometry">
            <mxPoint x="440" y="690" as="sourcePoint" />
            <mxPoint x="450" y="660" as="targetPoint" />
          </mxGeometry>
        </mxCell>
        <mxCell id="t3iFmXnVgxo45WNwYdjQ-7" value="" style="endArrow=classic;html=1;rounded=0;exitX=0;exitY=0.5;exitDx=0;exitDy=0;entryX=1.003;entryY=0.393;entryDx=0;entryDy=0;entryPerimeter=0;" edge="1" parent="WIyWlLk6GJQsqaUBKTNV-1" source="Nar7qtgmbKGVHt6r_NG1-13" target="t3iFmXnVgxo45WNwYdjQ-3">
          <mxGeometry width="50" height="50" relative="1" as="geometry">
            <mxPoint x="430" y="710" as="sourcePoint" />
            <mxPoint x="460" y="720" as="targetPoint" />
          </mxGeometry>
        </mxCell>
        <mxCell id="t3iFmXnVgxo45WNwYdjQ-11" value="&lt;font style=&quot;font-size: 18px;&quot;&gt;Xóa tài khoản&lt;/font&gt;" style="ellipse;whiteSpace=wrap;html=1;fillColor=#FFFFCC;" vertex="1" parent="WIyWlLk6GJQsqaUBKTNV-1">
          <mxGeometry x="320" y="840" width="120" height="80" as="geometry" />
        </mxCell>
        <mxCell id="t3iFmXnVgxo45WNwYdjQ-12" value="" style="endArrow=classic;html=1;rounded=0;exitX=0;exitY=0.5;exitDx=0;exitDy=0;entryX=1;entryY=0.5;entryDx=0;entryDy=0;" edge="1" parent="WIyWlLk6GJQsqaUBKTNV-1" source="Nar7qtgmbKGVHt6r_NG1-20" target="t3iFmXnVgxo45WNwYdjQ-11">
          <mxGeometry width="50" height="50" relative="1" as="geometry">
            <mxPoint x="480" y="900" as="sourcePoint" />
            <mxPoint x="530" y="850" as="targetPoint" />
          </mxGeometry>
        </mxCell>
        <mxCell id="t3iFmXnVgxo45WNwYdjQ-13" value="&lt;font style=&quot;font-size: 18px;&quot;&gt;Xem thông tin tài khoản&lt;/font&gt;" style="ellipse;whiteSpace=wrap;html=1;fillColor=#FFFFCC;" vertex="1" parent="WIyWlLk6GJQsqaUBKTNV-1">
          <mxGeometry x="414" y="910" width="120" height="80" as="geometry" />
        </mxCell>
        <mxCell id="t3iFmXnVgxo45WNwYdjQ-14" value="" style="endArrow=classic;html=1;rounded=0;exitX=0;exitY=0.5;exitDx=0;exitDy=0;entryX=0.55;entryY=0;entryDx=0;entryDy=0;entryPerimeter=0;" edge="1" parent="WIyWlLk6GJQsqaUBKTNV-1" source="Nar7qtgmbKGVHt6r_NG1-20" target="t3iFmXnVgxo45WNwYdjQ-13">
          <mxGeometry width="50" height="50" relative="1" as="geometry">
            <mxPoint x="450" y="790" as="sourcePoint" />
            <mxPoint x="500" y="890" as="targetPoint" />
          </mxGeometry>
        </mxCell>
      </root>
    </mxGraphModel>
  </diagram>
</mxfile>
